<?xml version="1.0" encoding="UTF-8" standalone="no"?>
<!-- Creator: CorelDRAW -->

<svg
   xmlns:dc="http://purl.org/dc/elements/1.1/"
   xmlns:cc="http://creativecommons.org/ns#"
   xmlns:rdf="http://www.w3.org/1999/02/22-rdf-syntax-ns#"
   xmlns:svg="http://www.w3.org/2000/svg"
   xmlns="http://www.w3.org/2000/svg"
   xmlns:sodipodi="http://sodipodi.sourceforge.net/DTD/sodipodi-0.dtd"
   xmlns:inkscape="http://www.inkscape.org/namespaces/inkscape"
   xml:space="preserve"
   width="25.4112mm"
   height="25.4112mm"
   style="shape-rendering:geometricPrecision; text-rendering:geometricPrecision; image-rendering:optimizeQuality; fill-rule:evenodd; clip-rule:evenodd"
   viewBox="0 0 6.6289 6.6289"
   id="svg3068"
   version="1.1"
   inkscape:version="0.48.2 r9819"
   sodipodi:docname="communications.svg"
   inkscape:export-filename="/home/ezh/0projectsAndroid/digiSSHD/src/resources/communications.png"
   inkscape:export-xdpi="71.970001"
   inkscape:export-ydpi="71.970001"><sodipodi:namedview
   pagecolor="#ffffff"
   bordercolor="#666666"
   borderopacity="1"
   objecttolerance="10"
   gridtolerance="10"
   guidetolerance="10"
   inkscape:pageopacity="0"
   inkscape:pageshadow="2"
   inkscape:window-width="729"
   inkscape:window-height="480"
   id="namedview3109"
   showgrid="false"
   inkscape:zoom="2.6654915"
   inkscape:cx="45.01984"
   inkscape:cy="45.01984"
   inkscape:window-x="0"
   inkscape:window-y="0"
   inkscape:window-maximized="0"
   inkscape:current-layer="svg3068" /><metadata
   id="metadata3111"><rdf:RDF><cc:Work
       rdf:about=""><dc:format>image/svg+xml</dc:format><dc:type
         rdf:resource="http://purl.org/dc/dcmitype/StillImage" /><dc:title></dc:title></cc:Work></rdf:RDF></metadata>
 <defs
   id="defs3070">
  <style
   id="style3072"
   type="text/css">
   
    .str0 {stroke:#4D4948;stroke-width:0.0920072}
    .str1 {stroke:#007CC3;stroke-width:0.368107}
    .str2 {stroke:#007CC3;stroke-width:0.368107;stroke-linecap:round;stroke-linejoin:round}
    .str3 {stroke:#E77817;stroke-width:0.368107;stroke-linecap:round}
    .fil2 {fill:none}
    .fil0 {fill:#4D4948}
    .fil1 {fill:#B6DDC7}
   
  </style>
 <filter
   id="filter3191"
   inkscape:label="Desaturate"
   x="0"
   y="0"
   width="1"
   height="1"
   inkscape:menu="Color"
   inkscape:menu-tooltip="Render in shades of gray by reducing saturation to zero"
   color-interpolation-filters="sRGB"><feColorMatrix
     id="feColorMatrix3193"
     type="saturate"
     values="0" /></filter></defs>
 <g
   id="Diagram"
   style="filter:url(#filter3191)">
  <metadata
   id="CorelCorpID_0Corel-Layer" />
  <g
   id="_87074280">
   <path
   d="M1.74926 0.705797l3.13038 0c0.574738,0 1.04346,0.468723 1.04346,1.04346l0 3.13038c0,0.574738 -0.468723,1.04346 -1.04346,1.04346l-3.13038 0c-0.574738,0 -1.04346,-0.468723 -1.04346,-1.04346l0 -3.13038c0,-0.574738 0.468723,-1.04346 1.04346,-1.04346z"
   class="fil0 str0"
   id="_89755184" />
   <path
   d="M2.27099 1.74926l2.08692 0c0.287369,0 0.521731,0.234361 0.521731,0.521731l0 2.08692c0,0.287369 -0.234361,0.521731 -0.521731,0.521731l-2.08692 0c-0.287369,0 -0.521731,-0.234361 -0.521731,-0.521731l0 -2.08692c0,-0.287369 0.234361,-0.521731 0.521731,-0.521731z"
   class="fil1 str1"
   id="_88123840" />
   <polyline
   points="2.30647,2.50973 2.90273,2.50973 3.79713,4.17927 4.39339,4.17927 "
   class="fil2 str2"
   id="_46245976" />
   <polyline
   points="4.39339,2.50973 3.79713,2.50973 2.90273,4.17927 2.30647,4.17927 "
   class="fil2 str2"
   id="_87111472" />
   <line
   y2="4.35791"
   x2="0.184067"
   y1="4.35791"
   x1="0.705797"
   class="fil2 str3"
   id="_89396080" />
   <line
   y2="3.83576"
   x2="0.184067"
   y1="3.83576"
   x1="0.705797"
   class="fil2 str3"
   id="_90010656" />
   <line
   y2="2.79272"
   x2="0.184067"
   y1="2.79272"
   x1="0.705797"
   class="fil2 str3"
   id="_87715640" />
   <line
   y2="3.31403"
   x2="0.184067"
   y1="3.31403"
   x1="0.705797"
   class="fil2 str3"
   id="_89402584" />
   <line
   y2="2.27057"
   x2="0.184067"
   y1="2.27057"
   x1="0.705797"
   class="fil2 str3"
   id="_48814616" />
   <line
   y2="1.74884"
   x2="0.184067"
   y1="1.74884"
   x1="0.705797"
   class="fil2 str3"
   id="_89385864" />
   <line
   y2="4.87943"
   x2="0.184067"
   y1="4.87943"
   x1="0.705797"
   class="fil2 str3"
   id="_88941016" />
   <line
   y2="4.35791"
   x2="5.9231"
   y1="4.35791"
   x1="6.44483"
   class="fil2 str3"
   id="_88122360" />
   <line
   y2="3.83576"
   x2="5.9231"
   y1="3.83576"
   x1="6.44483"
   class="fil2 str3"
   id="_87113736" />
   <line
   y2="2.79272"
   x2="5.9231"
   y1="2.79272"
   x1="6.44483"
   class="fil2 str3"
   id="_88703024" />
   <line
   y2="3.31403"
   x2="5.9231"
   y1="3.31403"
   x1="6.44483"
   class="fil2 str3"
   id="_88626376" />
   <line
   y2="2.27057"
   x2="5.9231"
   y1="2.27057"
   x1="6.44483"
   class="fil2 str3"
   id="_87463728" />
   <line
   y2="1.74884"
   x2="5.9231"
   y1="1.74884"
   x1="6.44483"
   class="fil2 str3"
   id="_89713104" />
   <line
   y2="4.87943"
   x2="5.9231"
   y1="4.87943"
   x1="6.44483"
   class="fil2 str3"
   id="_88873448" />
   <line
   y2="5.9231"
   x2="2.27099"
   y1="6.44483"
   x1="2.27099"
   class="fil2 str3"
   id="_89723464" />
   <line
   y2="5.9231"
   x2="2.79314"
   y1="6.44483"
   x1="2.79314"
   class="fil2 str3"
   id="_88539056" />
   <line
   y2="5.9231"
   x2="3.83618"
   y1="6.44483"
   x1="3.83618"
   class="fil2 str3"
   id="_90007944" />
   <line
   y2="5.9231"
   x2="3.31487"
   y1="6.44483"
   x1="3.31487"
   class="fil2 str3"
   id="_90547464" />
   <line
   y2="5.9231"
   x2="4.35833"
   y1="6.44483"
   x1="4.35833"
   class="fil2 str3"
   id="_90548848" />
   <line
   y2="5.9231"
   x2="4.88006"
   y1="6.44483"
   x1="4.88006"
   class="fil2 str3"
   id="_89795808" />
   <line
   y2="5.9231"
   x2="1.74947"
   y1="6.44483"
   x1="1.74947"
   class="fil2 str3"
   id="_48248696" />
   <line
   y2="0.184067"
   x2="2.27078"
   y1="0.705797"
   x1="2.27078"
   class="fil2 str3"
   id="_89366448" />
   <line
   y2="0.184067"
   x2="2.79293"
   y1="0.705797"
   x1="2.79293"
   class="fil2 str3"
   id="_89737832" />
   <line
   y2="0.184067"
   x2="3.83597"
   y1="0.705797"
   x1="3.83597"
   class="fil2 str3"
   id="_89023520" />
   <line
   y2="0.184067"
   x2="3.31466"
   y1="0.705797"
   x1="3.31466"
   class="fil2 str3"
   id="_89662904" />
   <line
   y2="0.184067"
   x2="4.35812"
   y1="0.705797"
   x1="4.35812"
   class="fil2 str3"
   id="_90099928" />
   <line
   y2="0.184067"
   x2="4.87985"
   y1="0.705797"
   x1="4.87985"
   class="fil2 str3"
   id="_48961728" />
   <line
   y2="0.184067"
   x2="1.74926"
   y1="0.705797"
   x1="1.74926"
   class="fil2 str3"
   id="_89737480" />
  </g>
 </g>
</svg>